<svg width="34" height="32" viewBox="0 0 34 32" fill="none" xmlns="http://www.w3.org/2000/svg">
<g id="icon/social/instagram">
<circle id="bg" cx="16.7623" cy="16" r="16" fill="#1b3240"/>
<path id="Vector" fill-rule="evenodd" clip-rule="evenodd" d="M20.6998 8.6875H12.8248C10.9608 8.6875 9.44977 10.1985 9.44977 12.0625V19.9375C9.44977 21.8015 10.9608 23.3125 12.8248 23.3125H20.6998C22.5637 23.3125 24.0748 21.8015 24.0748 19.9375V12.0625C24.0748 10.1985 22.5637 8.6875 20.6998 8.6875ZM12.8248 7C10.0288 7 7.76227 9.26656 7.76227 12.0625V19.9375C7.76227 22.7334 10.0288 25 12.8248 25H20.6998C23.4957 25 25.7623 22.7334 25.7623 19.9375V12.0625C25.7623 9.26656 23.4957 7 20.6998 7H12.8248ZM16.7623 19.375C18.6262 19.375 20.1373 17.864 20.1373 16C20.1373 14.136 18.6262 12.625 16.7623 12.625C14.8983 12.625 13.3873 14.136 13.3873 16C13.3873 17.864 14.8983 19.375 16.7623 19.375ZM16.7623 21.0625C19.5582 21.0625 21.8248 18.7959 21.8248 16C21.8248 13.2041 19.5582 10.9375 16.7623 10.9375C13.9663 10.9375 11.6998 13.2041 11.6998 16C11.6998 18.7959 13.9663 21.0625 16.7623 21.0625ZM21.5544 12.3329C22.1757 12.3329 22.6794 11.8292 22.6794 11.2079C22.6794 10.5865 22.1757 10.0829 21.5544 10.0829C20.9331 10.0829 20.4294 10.5865 20.4294 11.2079C20.4294 11.8292 20.9331 12.3329 21.5544 12.3329Z" fill="white"/>
</g>
</svg>
