<svg width="34" height="33" viewBox="0 0 34 33" fill="none" xmlns="http://www.w3.org/2000/svg">
<g id="icon/social/pinterest">
<path id="Vector" d="M17.062 0C7.92897 0 0.524536 7.16379 0.524536 16C0.524536 22.7819 4.88008 28.5761 11.0323 30.907C10.8826 29.6428 10.7601 27.6938 11.0867 26.3111C11.3862 25.0601 13.0195 18.3572 13.0195 18.3572C13.0195 18.3572 12.5295 17.3959 12.5295 15.9868C12.5295 13.7613 13.8634 12.1021 15.524 12.1021C16.9395 12.1021 17.6201 13.1292 17.6201 14.3539C17.6201 15.7235 16.7217 17.7778 16.2453 19.6872C15.8506 21.2807 17.0756 22.5844 18.6953 22.5844C21.6353 22.5844 23.8948 19.5819 23.8948 15.2626C23.8948 11.4305 21.0501 8.7572 16.9803 8.7572C12.2709 8.7572 9.50785 12.1679 9.50785 15.6971C9.50785 17.0667 10.0523 18.5416 10.7329 19.3449C10.869 19.5029 10.8826 19.6477 10.8417 19.8058C10.7192 20.3062 10.4334 21.3992 10.379 21.623C10.3109 21.9128 10.134 21.9786 9.82091 21.8337C7.75202 20.8988 6.45897 17.9885 6.45897 15.6313C6.45897 10.5877 10.2429 5.95226 17.3887 5.95226C23.1189 5.95226 27.5834 9.90288 27.5834 15.1967C27.5834 20.7144 23.99 25.1523 19.0084 25.1523C17.3342 25.1523 15.7553 24.3095 15.2245 23.3086C15.2245 23.3086 14.3942 26.3638 14.1901 27.1144C13.8226 28.5103 12.8153 30.2486 12.1348 31.3152C13.6865 31.7761 15.3198 32.0263 17.0348 32.0263C26.1678 32.0263 33.5723 24.8626 33.5723 16.0263C33.5995 7.16378 26.195 0 17.062 0Z" fill="#1b3240"/>
</g>
</svg>
