<svg width="34" height="32" viewBox="0 0 34 32" fill="none" xmlns="http://www.w3.org/2000/svg">
<g id="icon/social/youtube">
<circle id="Ellipse 22" cx="16.6434" cy="16" r="16" fill="#1b3240"/>
<path id="&#60;Path&#62;" d="M28.075 10.67C27.9465 10.2019 27.6932 9.77468 27.3404 9.43113C26.9876 9.08758 26.5476 8.83976 26.0646 8.7125C24.2869 8.25 17.1809 8.25 17.1809 8.25C17.1809 8.25 10.075 8.25 8.29719 8.7125C7.8142 8.83976 7.37426 9.08758 7.02144 9.43113C6.66861 9.77468 6.41529 10.2019 6.28685 10.67C5.8114 12.3975 5.8114 16 5.8114 16C5.8114 16 5.8114 19.6025 6.28685 21.33C6.41529 21.7981 6.66861 22.2253 7.02144 22.5689C7.37426 22.9124 7.8142 23.1602 8.29719 23.2875C10.075 23.75 17.1809 23.75 17.1809 23.75C17.1809 23.75 24.2869 23.75 26.0646 23.2875C26.5476 23.1602 26.9876 22.9124 27.3404 22.5689C27.6932 22.2253 27.9465 21.7981 28.075 21.33C28.5504 19.6025 28.5504 16 28.5504 16C28.5504 16 28.5504 12.3975 28.075 10.67Z" fill="white"/>
<path id="&#60;Path&#62;_2" d="M14.8553 19.2713L20.7985 16L14.8553 12.7288V19.2713Z" fill="#1b3240"/>
</g>
</svg>
